<?xml version="1.0" standalone="no"?>
<!DOCTYPE svg PUBLIC "-//W3C//DTD SVG 20010904//EN"
 "http://www.w3.org/TR/2001/REC-SVG-20010904/DTD/svg10.dtd">
<svg version="1.0" xmlns="http://www.w3.org/2000/svg"
 width="700.000000pt" height="700.000000pt" viewBox="0 0 700.000000 700.000000"
 preserveAspectRatio="xMidYMid meet">
<metadata>
Created by potrace 1.14, written by Peter Selinger 2001-2017
</metadata>
<g transform="translate(0.000000,700.000000) scale(0.100000,-0.100000)"
fill="#000000" stroke="none">
<path d="M3460 6350 c-23 -5 -161 -72 -185 -90 -5 -4 -64 -35 -130 -70 -66
-34 -147 -77 -180 -95 -33 -18 -98 -53 -145 -77 -47 -25 -114 -61 -150 -81
-36 -19 -101 -53 -145 -77 -127 -68 -225 -120 -290 -155 -34 -18 -115 -61
-180 -95 -66 -35 -124 -66 -130 -70 -5 -4 -68 -38 -140 -75 -71 -38 -165 -88
-209 -112 -43 -23 -80 -43 -82 -43 -2 0 -52 -26 -111 -58 -59 -33 -153 -83
-208 -112 -55 -29 -122 -65 -150 -80 -27 -15 -93 -50 -145 -78 -52 -27 -124
-65 -160 -84 -36 -19 -110 -59 -165 -88 -55 -30 -136 -73 -180 -97 -44 -24
-123 -66 -175 -93 -155 -81 -202 -142 -196 -256 2 -33 11 -74 19 -91 15 -29
85 -103 98 -103 3 0 64 -31 134 -70 70 -38 130 -70 131 -70 3 0 348 -184 629
-335 33 -18 139 -74 235 -125 166 -88 217 -116 362 -194 35 -18 146 -77 248
-131 102 -54 190 -101 195 -105 6 -4 73 -40 150 -80 77 -40 154 -80 170 -90
17 -10 80 -43 140 -75 61 -32 135 -71 165 -88 30 -16 96 -51 147 -78 50 -27
152 -81 225 -120 386 -207 371 -200 443 -200 37 0 72 4 78 9 7 5 57 33 112 62
55 29 132 70 170 90 39 21 111 59 160 85 50 26 104 55 120 65 29 17 84 46 300
160 137 73 241 128 300 160 28 15 95 51 150 80 55 29 156 83 225 120 69 37
157 84 195 104 39 20 104 55 145 77 41 22 152 81 245 131 94 50 193 103 220
118 28 15 94 50 148 78 182 97 282 150 386 206 58 31 107 54 109 51 3 -3 6
-575 6 -1272 l1 -1268 22 -40 c29 -54 59 -80 116 -99 117 -39 245 15 282 120
12 32 14 289 14 1499 1 1029 -2 1472 -10 1500 -19 71 -49 98 -181 163 -68 34
-161 82 -208 107 -47 25 -132 71 -190 102 -58 31 -127 68 -155 83 -27 15 -93
49 -145 77 -135 72 -991 528 -1075 573 -38 21 -173 93 -300 160 -243 130 -342
183 -440 235 -33 18 -114 61 -180 96 -66 35 -141 75 -167 89 -25 14 -79 42
-120 64 -40 21 -95 51 -123 66 -168 91 -195 101 -245 90z"/>
<path d="M1315 2563 c1 -263 5 -491 9 -508 15 -62 59 -181 77 -207 11 -14 19
-29 19 -33 0 -21 117 -170 195 -249 252 -255 650 -468 1090 -585 61 -16 128
-32 150 -37 22 -4 42 -8 45 -9 3 -1 25 -5 50 -9 25 -5 53 -10 64 -12 10 -2 44
-6 75 -10 31 -3 65 -8 76 -10 113 -21 569 -21 682 0 10 2 41 7 68 10 64 9 112
16 139 22 11 3 44 9 71 14 163 33 414 111 590 185 97 41 269 133 370 200 246
160 428 348 517 535 83 174 86 192 86 730 l1 451 -177 -92 c-97 -51 -194 -101
-214 -111 -20 -10 -40 -22 -43 -28 -3 -5 -12 -10 -19 -10 -8 0 -49 -20 -92
-43 -44 -24 -151 -81 -239 -127 -88 -45 -196 -101 -240 -124 -44 -23 -147 -77
-230 -120 -82 -43 -181 -95 -220 -116 -38 -20 -142 -74 -230 -120 -88 -45
-181 -96 -207 -112 -41 -26 -72 -39 -133 -54 -50 -13 -198 -15 -261 -5 -66 12
-104 27 -209 85 -46 26 -96 52 -385 204 -58 30 -145 76 -195 102 -49 26 -148
78 -220 115 -71 37 -175 91 -230 120 -55 29 -147 77 -205 107 -58 31 -148 78
-200 105 -52 28 -162 85 -245 128 -82 43 -154 81 -159 86 -6 5 -13 9 -17 9 -4
0 -6 -215 -4 -477z"/>
</g>
</svg>
